# xmcd CD database file
#
# Track frame offsets:
#	150
#	25500
#	47400
#	69975
#	90000
#	121950
#	142725
#	157800
#	177675
#	199500
#	224475
#	251400
#	273900
#	306000
#
# Disc length: 4488 seconds
#
# Revision: 0
# Processed by: cddbd v1.5.1PL2 Copyright (c) Steve Scherf et al.
# Submitted via: CDex 1.51
#
DISCID=ab11860e
DTITLE=Various Artist - Smooth Jazz On A Summer's Day. CD2
DYEAR=2001
DGENRE=Jazz
TTITLE0=GATO BARBIERI - Straight Into The Sunrise
TTITLE1=PETER WHITE - Midnight In Manhattan
TTITLE2=EARTH,WIND and FIRE - Reasons
TTITLE3=STANLEY CLARKE - Hideaway
TTITLE4=KIRK WHALUM - Drowning In The Sea Of Love
TTITLE5=TOWER OF POWER - It Really Doesn't Matter
TTITLE6=THE O'JAYS - Use Ta Be My Girl
TTITLE7=ROY AYERS - I Can't Help It
TTITLE8=OTTMAR LIEBERT - Spanish Steps/Rome In May
TTITLE9=RICHARD BONA - Djombwe
TTITLE10=MARK ISHAM - That Beautiful Sadness
TTITLE11=NANCY WILSON - Hello Like Before
TTITLE12=DON BRADEN - Saving All My Love For You
TTITLE13=THEMBA MKHIZE - Inner Peace
EXTD=YEAR: 2001
EXTT0=
EXTT1=
EXTT2=
EXTT3=
EXTT4=
EXTT5=
EXTT6=
EXTT7=
EXTT8=
EXTT9=
EXTT10=
EXTT11=
EXTT12=
EXTT13=
PLAYORDER=
